<svg viewBox="0 0 900 480" xmlns="http://www.w3.org/2000/svg" font-family="ui-monospace,SFMono-Regular,Menlo,monospace">
  <!-- Background -->
  <rect width="900" height="480" fill="#0d1117" rx="8"/>
  <!-- Top bar -->
  <rect width="900" height="44" fill="#161b22"/>
  <rect width="900" height="1" y="44" fill="#30363d"/>
  <circle cx="20" cy="22" r="6" fill="#ff5f57"/>
  <circle cx="40" cy="22" r="6" fill="#febc2e"/>
  <circle cx="60" cy="22" r="6" fill="#28c840"/>
  <text x="430" y="28" text-anchor="middle" fill="#8b949e" font-size="13">MemOS — Retrieval Panel</text>

  <!-- Left side: ingest log -->
  <rect x="0" y="44" width="420" height="436" fill="#0d1117"/>
  <text x="16" y="70" fill="#8b949e" font-size="11">Ingest log</text>
  <rect x="16" y="78" width="388" height="390" fill="#161b22" rx="6" stroke="#30363d" stroke-width="1"/>

  <!-- Log entries -->
  <text x="28" y="100" fill="#6e7681" font-size="10">10:42:01</text>
  <text x="95" y="100" fill="#5DCAA5" font-size="10">+ [PROJECT]</text>
  <text x="180" y="100" fill="#8b949e" font-size="10">building MemOS…</text>

  <text x="28" y="118" fill="#6e7681" font-size="10">10:42:01</text>
  <text x="95" y="118" fill="#7F77DD" font-size="10">+ [PREFERENCE]</text>
  <text x="190" y="118" fill="#8b949e" font-size="10">forgetting engine…</text>

  <text x="28" y="136" fill="#6e7681" font-size="10">10:42:02</text>
  <text x="95" y="136" fill="#BA7517" font-size="10">+ [DECISION]</text>
  <text x="183" y="136" fill="#8b949e" font-size="10">React dashboard…</text>

  <text x="28" y="154" fill="#6e7681" font-size="10">10:42:02</text>
  <text x="95" y="154" fill="#888780" font-size="10">+ [FACT]</text>
  <text x="152" y="154" fill="#8b949e" font-size="10">FastAPI backend…</text>

  <rect x="28" y="162" width="360" height="1" fill="#21262d"/>

  <text x="28" y="180" fill="#6e7681" font-size="10">10:43:15</text>
  <text x="95" y="180" fill="#5DCAA5" font-size="10">+ [PROJECT]</text>
  <text x="180" y="180" fill="#8b949e" font-size="10">NetworkX graph…</text>

  <text x="28" y="198" fill="#6e7681" font-size="10">10:43:15</text>
  <text x="95" y="198" fill="#7F77DD" font-size="10">⬆ [PREFERENCE]</text>
  <text x="198" y="198" fill="#5DCAA5" font-size="10">reinforced → 0.89</text>

  <rect x="28" y="206" width="360" height="1" fill="#21262d"/>

  <text x="28" y="224" fill="#6e7681" font-size="10">11:00:00</text>
  <text x="95" y="224" fill="#E24B4A" font-size="10">⟳ decay run</text>
  <text x="170" y="224" fill="#6e7681" font-size="10">24 nodes processed</text>

  <text x="28" y="242" fill="#6e7681" font-size="10">11:00:00</text>
  <text x="95" y="242" fill="#6e7681" font-size="10">  importance × e^(-0.008 × 1h)</text>

  <text x="28" y="260" fill="#6e7681" font-size="10">11:00:00</text>
  <text x="95" y="260" fill="#E24B4A" font-size="10">✗ pruned</text>
  <text x="152" y="260" fill="#6e7681" font-size="10">2 nodes below 0.05</text>

  <!-- Blinking cursor line -->
  <text x="28" y="296" fill="#6e7681" font-size="10">11:02:44</text>
  <rect x="95" y="284" width="6" height="14" fill="#5DCAA5" opacity="0.8"/>

  <!-- Right side: retrieval result -->
  <rect x="420" y="44" width="1" height="436" fill="#30363d"/>
  <rect x="421" y="44" width="479" height="436" fill="#0d1117"/>

  <text x="437" y="70" fill="#8b949e" font-size="11">Query</text>

  <!-- Query input styled -->
  <rect x="437" y="78" width="420" height="36" fill="#161b22" rx="6" stroke="#534AB7" stroke-width="1.5"/>
  <text x="451" y="102" fill="#e6edf3" font-size="12">what am I working on?</text>
  <rect x="819" y="84" width="28" height="24" fill="#534AB7" rx="4" opacity="0.8"/>
  <text x="833" y="100" text-anchor="middle" fill="#EEEDFE" font-size="11">↵</text>

  <!-- Response header -->
  <text x="437" y="136" fill="#8b949e" font-size="11">Retrieved context  <tspan fill="#6e7681" font-size="10">top_k=5  ·  8ms</tspan></text>

  <!-- Context result block -->
  <rect x="437" y="144" width="420" height="212" fill="#161b22" rx="6" stroke="#30363d" stroke-width="1"/>

  <text x="449" y="163" fill="#6e7681" font-size="10">[MEMORY CONTEXT — ranked by relevance and recency]</text>

  <!-- Result 1 -->
  <rect x="449" y="170" width="396" height="36" fill="#0d1117" rx="4"/>
  <rect x="449" y="170" width="3" height="36" fill="#1D9E75" rx="2"/>
  <text x="460" y="183" fill="#5DCAA5" font-size="10">1. [PROJECT]  building MemOS as a local-first memory layer for LLMs</text>
  <text x="460" y="198" fill="#6e7681" font-size="9">importance=0.92  ·  graph_score=0.91  ·  2h ago</text>

  <!-- Result 2 -->
  <rect x="449" y="212" width="396" height="36" fill="#0d1117" rx="4"/>
  <rect x="449" y="212" width="3" height="36" fill="#534AB7" rx="2"/>
  <text x="460" y="225" fill="#7F77DD" font-size="10">2. [PREFERENCE]  forgetting engine is the most novel part  📌</text>
  <text x="460" y="240" fill="#6e7681" font-size="9">importance=0.84  ·  pinned=true  ·  0h ago</text>

  <!-- Result 3 -->
  <rect x="449" y="254" width="396" height="36" fill="#0d1117" rx="4"/>
  <rect x="449" y="254" width="3" height="36" fill="#BA7517" rx="2"/>
  <text x="460" y="267" fill="#EF9F27" font-size="10">3. [DECISION]  React dashboard with live graph and decay preview</text>
  <text x="460" y="282" fill="#6e7681" font-size="9">importance=0.71  ·  vector_score=0.84  ·  6h ago</text>

  <!-- Result 4 -->
  <rect x="449" y="296" width="396" height="36" fill="#0d1117" rx="4"/>
  <rect x="449" y="296" width="3" height="36" fill="#444441" rx="2"/>
  <text x="460" y="309" fill="#8b949e" font-size="10">4. [FACT]  FastAPI server with 8 REST endpoints</text>
  <text x="460" y="324" fill="#6e7681" font-size="9">importance=0.58  ·  vector_score=0.72  ·  14h ago</text>

  <!-- Scoring formula -->
  <rect x="437" y="366" width="420" height="50" fill="#161b22" rx="6" stroke="#30363d" stroke-width="1"/>
  <text x="449" y="382" fill="#6e7681" font-size="10">Ranking formula</text>
  <text x="449" y="400" fill="#8b949e" font-size="10">final_score = 0.6 × graph_relevance  +  0.3 × vector_similarity  +  0.1 × recency</text>

  <!-- Footer info -->
  <text x="437" y="436" fill="#6e7681" font-size="10">24 nodes in graph  ·  3 pinned  ·  decay rate 0.008/hr  ·  prune at 0.05</text>
</svg>
