<svg xmlns="http://www.w3.org/2000/svg" width="860" height="340" viewBox="0 0 860 340">
  <defs>
    <linearGradient id="bg" x1="0%" y1="0%" x2="100%" y2="100%">
      <stop offset="0%" stop-color="#081018"/>
      <stop offset="100%" stop-color="#122334"/>
    </linearGradient>
  </defs>
  <rect width="860" height="340" rx="24" fill="url(#bg)"/>
  <text x="48" y="26" fill="#f4f8fc" font-size="20" font-weight="700">Decay behavior over time</text>
  <text x="48" y="48" fill="#8ea4bf" font-size="13">Default decay rate = 0.008 per hour. Pinned memories flatten at 0.30.</text>
  <line x1="48" y1="292.0" x2="812" y2="292.0" stroke="#d7e3f1" stroke-opacity="0.16"/><line x1="48" y1="231.0" x2="812" y2="231.0" stroke="#d7e3f1" stroke-opacity="0.16"/><line x1="48" y1="170.0" x2="812" y2="170.0" stroke="#d7e3f1" stroke-opacity="0.16"/><line x1="48" y1="109.0" x2="812" y2="109.0" stroke="#d7e3f1" stroke-opacity="0.16"/><line x1="48" y1="48.0" x2="812" y2="48.0" stroke="#d7e3f1" stroke-opacity="0.16"/>
  <line x1="48" y1="292" x2="812" y2="292" stroke="#8ea4bf" stroke-opacity="0.5"/>
  <line x1="48" y1="48" x2="48" y2="292" stroke="#8ea4bf" stroke-opacity="0.5"/>
  <path d="M 48.0 48.0 L 102.57 70.33 L 157.14 90.63 L 211.71 109.05 L 266.29 125.81 L 320.86 141.01 L 375.43 154.85 L 430.0 167.39 L 484.57 178.81 L 539.14 189.15 L 593.71 198.57 L 648.29 207.14 L 702.86 214.9 L 757.43 221.95 L 812.0 228.36" fill="none" stroke="#38b48b" stroke-width="4" stroke-linecap="round"/>
  <path d="M 48.0 48.0 L 102.57 70.33 L 157.14 90.63 L 211.71 109.05 L 266.29 125.81 L 320.86 141.01 L 375.43 154.85 L 430.0 167.39 L 484.57 178.81 L 539.14 189.15 L 593.71 198.57 L 648.29 207.14 L 702.86 214.9 L 757.43 218.8 L 812.0 218.8" fill="none" stroke="#ff9b71" stroke-width="4" stroke-linecap="round" stroke-dasharray="10 7"/>
  <circle cx="644" cy="73" r="5" fill="#38b48b"/>
  <text x="658" y="78" fill="#e7f0f8" font-size="12">Regular memory</text>
  <circle cx="644" cy="99" r="5" fill="#ff9b71"/>
  <text x="658" y="104" fill="#e7f0f8" font-size="12">Pinned memory floor</text>
  <text x="48.0" y="326" text-anchor="middle" fill="#7e93ad" font-size="12">0h</text><text x="157.14" y="326" text-anchor="middle" fill="#7e93ad" font-size="12">24h</text><text x="266.29" y="326" text-anchor="middle" fill="#7e93ad" font-size="12">48h</text><text x="375.43" y="326" text-anchor="middle" fill="#7e93ad" font-size="12">72h</text><text x="484.57" y="326" text-anchor="middle" fill="#7e93ad" font-size="12">96h</text><text x="593.71" y="326" text-anchor="middle" fill="#7e93ad" font-size="12">120h</text><text x="702.86" y="326" text-anchor="middle" fill="#7e93ad" font-size="12">144h</text><text x="812.0" y="326" text-anchor="middle" fill="#7e93ad" font-size="12">168h</text>
  <text x="16" y="296.0" fill="#7e93ad" font-size="12">0.00</text><text x="16" y="235.0" fill="#7e93ad" font-size="12">0.25</text><text x="16" y="174.0" fill="#7e93ad" font-size="12">0.50</text><text x="16" y="113.0" fill="#7e93ad" font-size="12">0.75</text><text x="16" y="52.0" fill="#7e93ad" font-size="12">1.00</text>
</svg>